<?xml version="1.0" encoding="UTF-8" standalone="no"?>
<svg
   height="24px"
   viewBox="0 -960 960 960"
   width="24px"
   fill="#1f1f1f"
   version="1.1"
   id="svg1"
   sodipodi:docname="logo.svg"
   inkscape:export-filename="logo.png"
   inkscape:export-xdpi="8192"
   inkscape:export-ydpi="8192"
   inkscape:version="1.4 (e7c3feb100, 2024-10-09)"
   xmlns:inkscape="http://www.inkscape.org/namespaces/inkscape"
   xmlns:sodipodi="http://sodipodi.sourceforge.net/DTD/sodipodi-0.dtd"
   xmlns="http://www.w3.org/2000/svg"
   xmlns:svg="http://www.w3.org/2000/svg">
  <defs
     id="defs1" />
  <sodipodi:namedview
     id="namedview1"
     pagecolor="#505050"
     bordercolor="#eeeeee"
     borderopacity="1"
     inkscape:showpageshadow="0"
     inkscape:pageopacity="0"
     inkscape:pagecheckerboard="0"
     inkscape:deskcolor="#505050"
     inkscape:zoom="16.854167"
     inkscape:cx="11.599506"
     inkscape:cy="14.684796"
     inkscape:window-width="1920"
     inkscape:window-height="1018"
     inkscape:window-x="0"
     inkscape:window-y="0"
     inkscape:window-maximized="1"
     inkscape:current-layer="svg1" />
  <path
     d="m 210,-240 v -120 h 540 v 120 z m 60,-30 h 60 v -60 h -60 z m -60,-330 v -120 h 540 v 120 z m 60,-30 h 60 v -60 h -60 z m -60,210 v -120 h 540 v 120 z m 60,-30 h 60 v -60 h -60 z"
     id="path1"
     style="stroke-width:0.75" />
  <path
     d="m 396,-340 84,-84 84,84 56,-56 -84,-84 84,-84 -56,-56 -84,84 -84,-84 -56,56 84,84 -84,84 z m 84,260 Q 341,-115 250.5,-239.5 160,-364 160,-516 v -244 l 320,-120 320,120 v 244 q 0,152 -90.5,276.5 Q 619,-115 480,-80 Z m 0,-84 q 104,-33 172,-132 68,-99 68,-220 v -189 l -240,-90 -240,90 v 189 q 0,121 68,220 68,99 172,132 z m 0,-316 z"
     id="path1-5"
     style="fill:#ff5555;fill-opacity:0.73404253" />
</svg>
